<?xml version="1.0" encoding="UTF-8" standalone="no"?>
<!DOCTYPE svg PUBLIC "-//W3C//DTD SVG 1.1//EN" "http://www.w3.org/Graphics/SVG/1.1/DTD/svg11.dtd">
<svg width="100%" height="100%" viewBox="0 0 245 49" version="1.1" xmlns="http://www.w3.org/2000/svg" xmlns:xlink="http://www.w3.org/1999/xlink" xml:space="preserve" xmlns:serif="http://www.serif.com/" style="fill-rule:evenodd;clip-rule:evenodd;stroke-linejoin:round;stroke-miterlimit:2;fill:#162c68;">
    <g transform="matrix(1,-0.000772854,0.000772854,1,-62.2495,-27.649)">
        <g transform="matrix(48,0,0,48,61.0396,71.0549)">
            <path d="M0.849,-0.008C0.827,-0.024 0.806,-0.042 0.785,-0.061L0.749,-0.096C0.819,-0.19 0.845,-0.27 0.845,-0.388C0.845,-0.651 0.688,-0.819 0.444,-0.819C0.196,-0.819 0.037,-0.649 0.037,-0.385C0.037,-0.12 0.195,0.05 0.443,0.05C0.517,0.05 0.573,0.037 0.632,0.004C0.701,0.071 0.715,0.085 0.737,0.112L0.849,-0.008ZM0.416,-0.196C0.444,-0.174 0.462,-0.158 0.493,-0.13C0.478,-0.124 0.46,-0.121 0.441,-0.121C0.392,-0.121 0.347,-0.139 0.315,-0.172C0.268,-0.219 0.244,-0.294 0.244,-0.39C0.244,-0.549 0.319,-0.647 0.441,-0.647C0.564,-0.647 0.639,-0.548 0.639,-0.385C0.639,-0.317 0.63,-0.274 0.607,-0.231C0.547,-0.288 0.547,-0.288 0.53,-0.308L0.416,-0.196Z" style="fill-rule:nonzero;"/>
        </g>
        <g transform="matrix(48,0,0,48,119.552,71.0549)">
            <path d="M0.277,0.031C0.272,-0.012 0.269,-0.061 0.269,-0.12L0.269,-0.248L0.427,-0.248C0.621,-0.248 0.735,-0.354 0.735,-0.532C0.735,-0.706 0.626,-0.801 0.428,-0.801L0.209,-0.801C0.145,-0.801 0.109,-0.802 0.062,-0.804C0.068,-0.757 0.07,-0.712 0.07,-0.658L0.07,-0.117C0.07,-0.058 0.068,-0.013 0.062,0.031L0.277,0.031ZM0.269,-0.418L0.269,-0.631L0.418,-0.631C0.49,-0.631 0.529,-0.595 0.529,-0.526C0.529,-0.457 0.488,-0.418 0.418,-0.418L0.269,-0.418Z" style="fill-rule:nonzero;"/>
        </g>
        <g transform="matrix(48,0,0,48,156.176,71.0549)">
            <path d="M0.441,-0.819C0.195,-0.819 0.037,-0.65 0.037,-0.386C0.037,-0.121 0.195,0.05 0.44,0.05C0.683,0.05 0.844,-0.125 0.844,-0.389C0.844,-0.651 0.687,-0.819 0.441,-0.819ZM0.441,-0.123C0.319,-0.123 0.244,-0.224 0.244,-0.387C0.244,-0.548 0.319,-0.647 0.441,-0.647C0.562,-0.647 0.636,-0.549 0.636,-0.387C0.636,-0.223 0.562,-0.123 0.441,-0.123Z" style="fill-rule:nonzero;"/>
        </g>
        <g transform="matrix(48,0,0,48,198.512,71.0549)">
            <path d="M0.037,-0.22C0.044,-0.174 0.049,-0.151 0.059,-0.127C0.08,-0.07 0.117,-0.027 0.167,0.001C0.221,0.032 0.305,0.05 0.39,0.05C0.507,0.05 0.595,0.021 0.653,-0.035C0.699,-0.08 0.723,-0.144 0.723,-0.219C0.723,-0.311 0.687,-0.378 0.615,-0.423C0.577,-0.447 0.529,-0.464 0.453,-0.48C0.335,-0.504 0.335,-0.504 0.315,-0.513C0.283,-0.528 0.268,-0.549 0.268,-0.577C0.268,-0.623 0.313,-0.656 0.374,-0.656C0.45,-0.656 0.486,-0.629 0.498,-0.564L0.71,-0.587C0.697,-0.644 0.685,-0.674 0.66,-0.707C0.606,-0.782 0.509,-0.821 0.382,-0.821C0.185,-0.821 0.061,-0.724 0.061,-0.57C0.061,-0.489 0.095,-0.422 0.158,-0.378C0.195,-0.352 0.227,-0.34 0.319,-0.32C0.423,-0.296 0.448,-0.289 0.469,-0.279C0.495,-0.267 0.511,-0.24 0.511,-0.209C0.511,-0.153 0.465,-0.119 0.388,-0.119C0.337,-0.119 0.295,-0.136 0.271,-0.166C0.256,-0.186 0.249,-0.204 0.245,-0.24L0.037,-0.22Z" style="fill-rule:nonzero;"/>
        </g>
        <g transform="matrix(48,0,0,48,235.184,71.0549)">
            <path d="M0.489,-0.624L0.602,-0.624C0.674,-0.624 0.713,-0.622 0.758,-0.617L0.758,-0.808C0.712,-0.803 0.672,-0.801 0.602,-0.801L0.164,-0.801C0.103,-0.801 0.048,-0.804 0.015,-0.808L0.015,-0.617C0.086,-0.623 0.103,-0.624 0.166,-0.624L0.284,-0.624L0.284,-0.12C0.284,-0.057 0.282,-0.016 0.276,0.031L0.497,0.031C0.491,-0.016 0.489,-0.06 0.489,-0.12L0.489,-0.624Z" style="fill-rule:nonzero;"/>
        </g>
        <g transform="matrix(48,0,0,48,272.288,71.0549)">
            <path d="M0.037,-0.22C0.044,-0.174 0.049,-0.151 0.059,-0.127C0.08,-0.07 0.117,-0.027 0.167,0.001C0.221,0.032 0.305,0.05 0.39,0.05C0.507,0.05 0.595,0.021 0.653,-0.035C0.699,-0.08 0.723,-0.144 0.723,-0.219C0.723,-0.311 0.687,-0.378 0.615,-0.423C0.577,-0.447 0.529,-0.464 0.453,-0.48C0.335,-0.504 0.335,-0.504 0.315,-0.513C0.283,-0.528 0.268,-0.549 0.268,-0.577C0.268,-0.623 0.313,-0.656 0.374,-0.656C0.45,-0.656 0.486,-0.629 0.498,-0.564L0.71,-0.587C0.697,-0.644 0.685,-0.674 0.66,-0.707C0.606,-0.782 0.509,-0.821 0.382,-0.821C0.185,-0.821 0.061,-0.724 0.061,-0.57C0.061,-0.489 0.095,-0.422 0.158,-0.378C0.195,-0.352 0.227,-0.34 0.319,-0.32C0.423,-0.296 0.448,-0.289 0.469,-0.279C0.495,-0.267 0.511,-0.24 0.511,-0.209C0.511,-0.153 0.465,-0.119 0.388,-0.119C0.337,-0.119 0.295,-0.136 0.271,-0.166C0.256,-0.186 0.249,-0.204 0.245,-0.24L0.037,-0.22Z" style="fill-rule:nonzero;"/>
        </g>
    </g>
</svg>
